<svg xmlns="http://www.w3.org/2000/svg" xmlns:xlink="http://www.w3.org/1999/xlink" width="50" zoomAndPan="magnify" viewBox="0 0 37.5 37.499999" height="50" preserveAspectRatio="xMidYMid meet" version="1.0"><defs><clipPath id="be7c966d5d"><path d="M 6.460938 5.625 L 31.210938 5.625 L 31.210938 31.875 L 6.460938 31.875 Z M 6.460938 5.625 " clip-rule="nonzero"/></clipPath></defs><g clip-path="url(#be7c966d5d)"><path fill="#549460" d="M 30.800781 31.871094 L 25.4375 31.871094 C 25.359375 31.871094 25.285156 31.835938 25.234375 31.773438 L 21.054688 26.753906 C 20.523438 26.117188 20.203125 25.324219 20.199219 24.496094 C 20.191406 23.515625 19.679688 22.222656 18.742188 21.03125 C 17.257812 19.136719 15.265625 18.210938 14.289062 18.964844 C 13.316406 19.71875 13.730469 21.863281 15.21875 23.757812 C 16.167969 24.972656 17.328125 25.789062 18.296875 26.019531 C 19.105469 26.214844 19.8125 26.710938 20.300781 27.378906 L 23.28125 31.453125 C 23.40625 31.628906 23.28125 31.871094 23.066406 31.871094 L 12.0625 31.871094 C 11.820312 31.871094 11.628906 31.675781 11.628906 31.441406 L 11.628906 6.058594 C 11.628906 5.820312 11.820312 5.628906 12.0625 5.628906 L 23.101562 5.628906 C 23.355469 5.628906 23.488281 5.929688 23.316406 6.113281 L 21.253906 8.300781 C 20.683594 8.90625 19.921875 9.3125 19.09375 9.40625 C 18.105469 9.515625 16.851562 10.183594 15.757812 11.269531 L 13.882812 13.128906 C 13.722656 13.285156 13.722656 13.550781 13.882812 13.710938 L 13.984375 13.8125 C 14.140625 13.964844 14.394531 13.964844 14.546875 13.8125 L 16.910156 11.464844 C 17.082031 11.300781 17.355469 11.277344 17.535156 11.433594 C 17.632812 11.519531 17.683594 11.644531 17.683594 11.765625 C 17.683594 11.878906 17.640625 11.992188 17.554688 12.078125 L 15.175781 14.4375 C 15.023438 14.589844 15.019531 14.839844 15.175781 14.996094 C 15.253906 15.070312 15.355469 15.109375 15.457031 15.109375 C 15.558594 15.109375 15.660156 15.070312 15.738281 14.996094 L 18.101562 12.648438 C 18.269531 12.480469 18.546875 12.460938 18.722656 12.617188 C 18.824219 12.703125 18.875 12.828125 18.875 12.949219 C 18.875 13.0625 18.832031 13.175781 18.746094 13.261719 L 16.367188 15.621094 C 16.210938 15.773438 16.210938 16.023438 16.367188 16.175781 L 16.457031 16.265625 C 16.617188 16.425781 16.882812 16.425781 17.042969 16.265625 L 18.914062 14.410156 C 19.992188 13.339844 20.660156 12.121094 20.792969 11.152344 C 20.902344 10.332031 21.316406 9.582031 21.921875 9.015625 L 25.457031 5.707031 C 25.511719 5.65625 25.582031 5.628906 25.65625 5.628906 L 30.378906 5.628906 C 30.652344 5.628906 30.800781 5.949219 30.625 6.15625 L 21.570312 16.730469 C 21.480469 16.839844 21.46875 16.996094 21.546875 17.113281 L 31.070312 31.375 C 31.210938 31.585938 31.058594 31.871094 30.800781 31.871094 Z M 10.257812 31.457031 C 10.101562 31.457031 9.976562 31.332031 9.976562 31.179688 C 9.976562 31.027344 10.101562 30.902344 10.257812 30.902344 C 10.410156 30.902344 10.535156 31.027344 10.535156 31.179688 C 10.535156 31.332031 10.410156 31.457031 10.257812 31.457031 Z M 6.460938 24.035156 L 8.703125 24.035156 L 8.140625 31.382812 C 8.121094 31.644531 8.332031 31.871094 8.597656 31.871094 L 10.484375 31.871094 C 10.738281 31.871094 10.941406 31.667969 10.941406 31.417969 L 10.941406 5.628906 C 10.863281 5.667969 10.785156 5.707031 10.707031 5.753906 C 6.820312 8.015625 6.460938 19.285156 6.460938 24.035156 " fill-opacity="1" fill-rule="nonzero"/></g></svg>