<svg xmlns="http://www.w3.org/2000/svg" xmlns:xlink="http://www.w3.org/1999/xlink" width="50" zoomAndPan="magnify" viewBox="0 0 37.5 37.499999" height="50" preserveAspectRatio="xMidYMid meet" version="1.0"><defs><clipPath id="834b65ff6e"><path d="M 9.390625 6.355469 L 28.140625 6.355469 L 28.140625 31.105469 L 9.390625 31.105469 Z M 9.390625 6.355469 " clip-rule="nonzero"/></clipPath></defs><g clip-path="url(#834b65ff6e)"><path fill="#7b9029" d="M 9.394531 18.453125 C 9.394531 17.191406 9.640625 15.96875 10.132812 14.816406 C 10.601562 13.703125 11.277344 12.703125 12.140625 11.847656 C 13 10.988281 14.003906 10.316406 15.117188 9.84375 C 16.273438 9.355469 17.503906 9.109375 18.765625 9.109375 C 19.703125 9.109375 20.621094 9.246094 21.507812 9.515625 L 23.730469 6.574219 C 23.871094 6.390625 24.128906 6.355469 24.3125 6.492188 C 24.496094 6.632812 24.535156 6.890625 24.394531 7.074219 L 18.480469 14.894531 C 18.460938 14.921875 18.4375 14.941406 18.414062 14.960938 C 19.007812 15.640625 19.0625 16.660156 18.5 17.402344 L 17.394531 18.867188 C 16.746094 19.722656 15.523438 19.894531 14.664062 19.25 C 13.808594 18.605469 13.636719 17.382812 14.285156 16.527344 C 14.289062 16.523438 14.292969 16.515625 14.300781 16.511719 C 14.304688 16.503906 14.308594 16.496094 14.3125 16.488281 L 15.390625 15.066406 C 15.953125 14.324219 16.953125 14.097656 17.769531 14.476562 C 17.78125 14.449219 17.796875 14.421875 17.816406 14.394531 L 21.003906 10.179688 C 20.277344 9.988281 19.527344 9.886719 18.765625 9.886719 C 14.03125 9.886719 10.175781 13.730469 10.175781 18.453125 C 10.175781 21.050781 11.339844 23.476562 13.367188 25.113281 C 13.535156 25.25 13.5625 25.492188 13.425781 25.660156 C 13.347656 25.757812 13.234375 25.804688 13.121094 25.804688 C 13.035156 25.804688 12.949219 25.777344 12.875 25.71875 C 10.664062 23.933594 9.394531 21.285156 9.394531 18.453125 Z M 17.988281 21.355469 C 18.183594 21.097656 18.464844 20.933594 18.785156 20.886719 C 18.84375 20.878906 18.902344 20.875 18.957031 20.875 C 19.21875 20.875 19.472656 20.960938 19.683594 21.117188 C 19.941406 21.3125 20.109375 21.597656 20.152344 21.914062 C 20.199219 22.234375 20.117188 22.554688 19.921875 22.808594 C 19.726562 23.066406 19.445312 23.234375 19.125 23.277344 C 18.800781 23.324219 18.484375 23.242188 18.226562 23.046875 C 17.96875 22.855469 17.800781 22.570312 17.753906 22.25 C 17.710938 21.929688 17.792969 21.613281 17.988281 21.355469 Z M 26.988281 22.941406 C 27.742188 21.574219 28.140625 20.023438 28.140625 18.453125 C 28.140625 15.351562 26.601562 12.460938 24.023438 10.71875 C 23.847656 10.597656 23.605469 10.644531 23.484375 10.820312 C 23.363281 11 23.40625 11.242188 23.585938 11.359375 C 25.949219 12.960938 27.359375 15.609375 27.359375 18.453125 C 27.359375 19.933594 26.972656 21.394531 26.242188 22.675781 C 26.199219 22.75 26.183594 22.839844 26.195312 22.925781 L 27.039062 28.652344 L 22.148438 26.457031 C 22.054688 26.414062 21.945312 26.410156 21.847656 26.449219 C 20.867188 26.824219 19.828125 27.015625 18.765625 27.015625 C 17.832031 27.015625 16.921875 26.867188 16.046875 26.578125 L 18.160156 23.785156 C 18.53125 23.957031 18.953125 24 19.355469 23.914062 C 19.796875 23.820312 20.1875 23.570312 20.457031 23.210938 L 23.015625 19.828125 C 23.128906 19.679688 23.097656 19.472656 22.953125 19.359375 C 22.804688 19.25 22.59375 19.277344 22.484375 19.425781 L 20.789062 21.667969 C 20.714844 21.347656 20.558594 21.050781 20.335938 20.8125 L 21.78125 18.898438 C 21.894531 18.753906 21.863281 18.542969 21.714844 18.433594 C 21.644531 18.378906 21.558594 18.355469 21.46875 18.367188 C 21.378906 18.382812 21.300781 18.425781 21.246094 18.5 L 19.800781 20.410156 C 19.507812 20.261719 19.179688 20.195312 18.851562 20.210938 L 20.546875 17.972656 C 20.601562 17.902344 20.625 17.8125 20.613281 17.726562 C 20.597656 17.636719 20.554688 17.558594 20.480469 17.503906 C 20.410156 17.449219 20.320312 17.429688 20.234375 17.441406 C 20.144531 17.453125 20.066406 17.5 20.011719 17.570312 L 17.453125 20.953125 C 17.183594 21.3125 17.050781 21.757812 17.078125 22.203125 C 17.105469 22.613281 17.265625 23.003906 17.53125 23.3125 L 15.191406 26.40625 C 15.117188 26.449219 15.054688 26.515625 15.019531 26.601562 C 15.011719 26.617188 15.007812 26.636719 15.003906 26.65625 L 12.15625 30.417969 C 12.082031 30.515625 12.042969 30.632812 12.042969 30.746094 C 12.042969 30.867188 12.09375 30.972656 12.179688 31.039062 C 12.238281 31.085938 12.3125 31.105469 12.386719 31.105469 C 12.527344 31.105469 12.679688 31.027344 12.785156 30.890625 L 15.554688 27.230469 C 16.582031 27.605469 17.660156 27.792969 18.765625 27.792969 C 19.871094 27.792969 20.949219 27.605469 21.976562 27.234375 L 27.371094 29.652344 C 27.421875 29.675781 27.476562 29.6875 27.53125 29.6875 C 27.613281 29.6875 27.695312 29.660156 27.765625 29.609375 C 27.878906 29.523438 27.9375 29.382812 27.917969 29.242188 L 26.988281 22.941406 " fill-opacity="1" fill-rule="nonzero"/></g></svg>